<svg width="28" height="28" viewBox="0 0 28 28" fill="none" xmlns="http://www.w3.org/2000/svg">
<path d="M14 2.1875C11.6637 2.1875 9.37989 2.88029 7.43733 4.17827C5.49478 5.47624 3.98074 7.3211 3.08668 9.47955C2.19262 11.638 1.95869 14.0131 2.41448 16.3045C2.87027 18.5959 3.9953 20.7007 5.64731 22.3527C7.29931 24.0047 9.4041 25.1297 11.6955 25.5855C13.9869 26.0413 16.362 25.8074 18.5205 24.9133C20.6789 24.0193 22.5238 22.5052 23.8217 20.5627C25.1197 18.6201 25.8125 16.3363 25.8125 14C25.809 10.8682 24.5634 7.86566 22.3489 5.65114C20.1343 3.43662 17.1318 2.19097 14 2.1875ZM14 23.1875C12.1829 23.1875 10.4066 22.6487 8.8957 21.6391C7.38483 20.6296 6.20724 19.1947 5.51186 17.5159C4.81648 15.8371 4.63454 13.9898 4.98904 12.2076C5.34354 10.4254 6.21857 8.78835 7.50346 7.50346C8.78836 6.21856 10.4254 5.34354 12.2076 4.98904C13.9898 4.63453 15.8371 4.81648 17.5159 5.51186C19.1947 6.20724 20.6296 7.38482 21.6391 8.8957C22.6487 10.4066 23.1875 12.1829 23.1875 14C23.1849 16.4359 22.2161 18.7712 20.4937 20.4937C18.7712 22.2161 16.4359 23.1849 14 23.1875ZM17.5 11.8125V16.1875C17.5 16.5356 17.3617 16.8694 17.1156 17.1156C16.8694 17.3617 16.5356 17.5 16.1875 17.5H11.8125C11.4644 17.5 11.1306 17.3617 10.8844 17.1156C10.6383 16.8694 10.5 16.5356 10.5 16.1875V11.8125C10.5 11.4644 10.6383 11.1306 10.8844 10.8844C11.1306 10.6383 11.4644 10.5 11.8125 10.5H16.1875C16.5356 10.5 16.8694 10.6383 17.1156 10.8844C17.3617 11.1306 17.5 11.4644 17.5 11.8125Z" fill="#424242"/>
</svg>
