<svg width="24" height="24" viewBox="0 0 24 24" fill="none" xmlns="http://www.w3.org/2000/svg">
<path d="M12 0.1875C9.66371 0.1875 7.37989 0.880291 5.43733 2.17827C3.49478 3.47624 1.98074 5.3211 1.08668 7.47955C0.192618 9.638 -0.0413087 12.0131 0.414479 14.3045C0.870267 16.5959 1.9953 18.7007 3.64731 20.3527C5.29931 22.0047 7.4041 23.1297 9.6955 23.5855C11.9869 24.0413 14.362 23.8074 16.5205 22.9133C18.6789 22.0193 20.5238 20.5052 21.8217 18.5627C23.1197 16.6201 23.8125 14.3363 23.8125 12C23.809 8.8682 22.5634 5.86566 20.3489 3.65114C18.1343 1.43662 15.1318 0.190974 12 0.1875ZM12 21.1875C10.1829 21.1875 8.40658 20.6487 6.8957 19.6391C5.38483 18.6296 4.20724 17.1947 3.51186 15.5159C2.81648 13.8371 2.63454 11.9898 2.98904 10.2076C3.34354 8.42541 4.21857 6.78835 5.50346 5.50346C6.78836 4.21856 8.42541 3.34354 10.2076 2.98904C11.9898 2.63453 13.8371 2.81648 15.5159 3.51186C17.1947 4.20724 18.6296 5.38482 19.6391 6.8957C20.6487 8.40658 21.1875 10.1829 21.1875 12C21.1849 14.4359 20.2161 16.7712 18.4937 18.4937C16.7712 20.2161 14.4359 21.1849 12 21.1875ZM15.5 9.8125V14.1875C15.5 14.5356 15.3617 14.8694 15.1156 15.1156C14.8694 15.3617 14.5356 15.5 14.1875 15.5H9.81251C9.46441 15.5 9.13057 15.3617 8.88443 15.1156C8.63829 14.8694 8.50001 14.5356 8.50001 14.1875V9.8125C8.50001 9.4644 8.63829 9.13056 8.88443 8.88442C9.13057 8.63828 9.46441 8.5 9.81251 8.5H14.1875C14.5356 8.5 14.8694 8.63828 15.1156 8.88442C15.3617 9.13056 15.5 9.4644 15.5 9.8125Z" fill="#C5C5C5"/>
</svg>
